<mxfile host="app.diagrams.net" modified="2023-07-04T22:26:37.745Z" agent="Mozilla/5.0 (Windows NT 10.0; Win64; x64; rv:109.0) Gecko/20100101 Firefox/114.0" etag="R-YoPCV7YJT6NkKzEA37" version="21.5.2" type="github">
  <diagram name="Page-1" id="XFuJrn4libd_m44fIWtL">
    <mxGraphModel dx="1194" dy="724" grid="1" gridSize="10" guides="1" tooltips="1" connect="1" arrows="1" fold="1" page="1" pageScale="1" pageWidth="850" pageHeight="1100" math="0" shadow="0">
      <root>
        <mxCell id="0" />
        <mxCell id="1" parent="0" />
        <mxCell id="zHiJGC4FMNJEL2kDYLrT-1" value="&lt;div&gt;test&lt;/div&gt;" style="rounded=0;whiteSpace=wrap;html=1;" vertex="1" parent="1">
          <mxGeometry x="360" y="370" width="120" height="60" as="geometry" />
        </mxCell>
      </root>
    </mxGraphModel>
  </diagram>
</mxfile>
